<svg width="42" height="42" viewBox="0 0 42 42" fill="none" xmlns="http://www.w3.org/2000/svg">
<path d="M21.0876 0C26.6818 0.00277569 31.9325 2.16994 35.8806 6.10375C39.829 10.0374 42.0021 15.2668 42 20.827C41.9954 32.1876 32.8 41.4517 21.4331 41.6359L21.0881 41.6387H21.0794C17.6333 41.6375 14.2462 40.7906 11.2273 39.1822L11.0862 39.1061L0 42L2.96674 31.2148C1.13695 28.0593 0.17407 24.4787 0.175547 20.8104C0.180141 9.3358 9.5614 0 21.0876 0ZM21.0948 3.51533C11.5075 3.51533 3.71011 11.2747 3.70634 20.8122C3.70502 24.0306 4.59621 27.167 6.28523 29.8923L6.36366 30.0178L6.77709 30.6724L5.02113 37.0553L11.5995 35.3382L12.2343 35.7127C14.8605 37.2637 17.8649 38.0964 20.9324 38.1233L21.0809 38.124H21.0881C30.668 38.124 38.4653 30.3641 38.4692 20.826C38.4709 16.204 36.6649 11.8578 33.3831 8.58816C30.1014 5.31872 25.7373 3.5168 21.0948 3.51517V3.51533ZM13.6841 11.1996C14.0323 11.1996 14.3814 11.2029 14.6856 11.2184C15.0065 11.234 15.4371 11.0971 15.8611 12.1108C16.0238 12.4994 16.2712 13.0998 16.5245 13.7131L16.5788 13.8445C16.9865 14.8315 17.3941 15.8156 17.4725 15.9718C17.6029 16.2319 17.6899 16.5359 17.5158 16.8827C17.3419 17.23 17.2545 17.4467 16.9934 17.7507C16.7321 18.0541 16.4448 18.4288 16.2097 18.6616C16.1969 18.6743 16.1841 18.687 16.1713 18.6997L16.1332 18.7384C15.9003 18.9782 15.7054 19.2532 15.9807 19.7224C16.2853 20.2433 17.3339 21.9466 18.8872 23.3253C20.883 25.0968 22.5668 25.6461 23.0893 25.9065C23.6117 26.1668 23.9167 26.1234 24.2214 25.7759C24.5264 25.4291 25.5275 24.2578 25.8759 23.7371C26.2242 23.2166 26.5725 23.3036 27.0516 23.477C27.2792 23.5594 27.9792 23.887 28.7073 24.2361L28.9337 24.3448C29.6627 24.6958 30.3735 25.0449 30.6219 25.1687C31.1445 25.4291 31.4929 25.5592 31.6234 25.7759C31.754 25.9931 31.754 27.0339 31.3185 28.2487C30.8833 29.4635 28.7956 30.5721 27.7917 30.7217C26.8915 30.8553 25.7524 30.9111 24.5006 30.5156C23.742 30.2756 22.7684 29.9558 21.5217 29.4201C16.2802 27.1678 12.8568 21.9149 12.5957 21.5681L12.578 21.5446C12.2596 21.1211 10.4619 18.6963 10.4619 16.1885C10.4619 13.6291 11.812 12.3711 12.2907 11.8504C12.7698 11.3302 13.3358 11.1996 13.6841 11.1996V11.1996Z" fill="#F1F1F1"/>
</svg>
