<svg width="342" height="373" viewBox="0 0 342 373" fill="currentcolor" xmlns="http://www.w3.org/2000/svg">
<g clip-path="url(#clip0_210_46)">
<path d="M171.513 80.7722C171.509 80.7722 171.504 80.7722 171.5 80.7722C171.496 80.7722 171.491 80.7722 171.487 80.7722C171.467 80.7722 171.448 80.7722 171.427 80.7722C138.031 80.7722 115.062 85.5798 107.507 89.8877C115.073 94.1737 138.015 98.965 171.382 99.0047H171.618C204.985 98.965 227.927 94.1737 235.493 89.8877C227.938 85.5798 204.969 80.7722 171.573 80.7722C171.552 80.7722 171.533 80.7722 171.513 80.7722Z" fill="currentcolor"/>
<path d="M254.842 37.7614C253.168 39.1837 253.413 40.34 252.948 41.6257C252.693 42.3339 252.405 43.2566 251.15 44.3718C251.15 44.3718 234.979 61.3142 224.15 57.688C208.102 52.3119 216.909 31.4214 216.909 31.4214L218.563 27.757C219.387 25.9306 221.846 25.1769 222.842 24.5627C224.654 23.4475 225.253 23.8296 226.327 21.4508C228.067 17.5968 226.439 10.7969 225.913 9.36874C224.372 10.1842 217.994 13.7502 216.256 17.6041C215.182 19.9844 216.52 21.3685 217.018 23.1669C217.289 24.1572 217.715 25.4355 216.891 27.2618L215.239 30.9263C215.239 30.9263 205.359 50.9983 190.623 51.1305C172.616 51.2936 172.551 21.6521 172.551 21.6521C172.551 19.4731 173.665 18.2595 174.465 17.3029C175.917 15.5633 178.098 14.5245 178.098 11.6829C178.098 7.20153 173.08 1.64612 171.618 0.122464V0.0945474C171.588 0.0636923 171.552 0.024021 171.526 -0.00242615C171.523 0.00198183 171.517 0.00785921 171.513 0.0122668C171.509 0.00932841 171.504 0.00345113 171.5 -0.000956851C171.495 0.00345113 171.491 0.00932841 171.487 0.0122668C171.482 0.00785921 171.477 0.00198183 171.474 -0.00242615C171.447 0.024021 171.411 0.0636923 171.382 0.0945474V0.122464C169.92 1.64612 164.901 7.20153 164.901 11.6829C164.901 14.5245 167.083 15.5633 168.535 17.3029C169.334 18.2595 170.449 19.4731 170.449 21.6521C170.449 21.6521 170.384 51.2936 152.377 51.1305C137.64 50.9983 127.761 30.9263 127.761 30.9263L126.109 27.2618C125.284 25.4355 125.71 24.1572 125.982 23.1669C126.479 21.3685 127.818 19.9844 126.744 17.6041C125.005 13.7502 118.628 10.1842 117.087 9.36874C116.561 10.7969 114.933 17.5968 116.673 21.4508C117.747 23.8296 118.346 23.4475 120.158 24.5627C121.154 25.1769 123.613 25.9306 124.437 27.757L126.091 31.4214C126.091 31.4214 134.898 52.3119 118.85 57.688C108.02 61.3142 91.8492 44.3718 91.8492 44.3718C90.5949 43.2566 90.3071 42.3339 90.0513 41.6257C89.5862 40.34 89.8318 39.1837 88.1574 37.7614C85.268 35.3077 80.0748 33.8457 78.9963 33.5886C79.2885 34.6289 81.5181 39.6377 84.1663 41.9886C85.8014 43.4403 87.3377 42.9539 88.7127 43.8076C104.071 53.3609 105.292 86.6758 105.292 86.6758H105.424C107.561 81.5876 136.273 76.4274 171.401 76.4259C171.417 76.4259 171.583 76.4259 171.599 76.4259C206.727 76.4274 235.439 81.5876 237.574 86.6758H237.707C237.707 86.6758 238.928 53.3609 254.287 43.8076C255.66 42.9539 257.198 43.4403 258.833 41.9886C261.48 39.6377 263.711 34.6289 264.003 33.5886C262.925 33.8457 257.732 35.3077 254.842 37.7614Z" fill="currentcolor"/>
</g>
<path d="M258.882 94.0006C258.834 94.0031 258.802 94.0031 258.785 94.0199C259.23 96.7093 263.017 98.2279 264.282 100.665C266.064 102.504 269.03 106.196 270.878 108.888C272.726 111.581 274.669 114.233 275.198 114.782C275.726 115.331 277.273 117.153 278.63 118.827C281.547 122.421 288.646 129.371 293.383 133.272C295.236 134.797 297.47 136.669 298.359 137.432C300.712 139.452 301.723 139.319 300.615 137.124C300.318 136.535 299.6 134.381 299.015 132.347C298.429 130.314 297.734 128.225 297.472 127.706C296.246 124.08 294.924 120.751 292.785 117.518C291.657 115.387 290.382 113.294 288.813 111.605C286.941 108.714 283.98 106.43 281.408 104.459C275.231 100.029 268.483 97.3929 261.428 94.8099C260.278 94.3169 259.218 93.9845 258.882 94.0006ZM79.3193 96.1192C74.7997 96.288 70.491 99.8219 66.3401 101.319C60.4571 104.096 57.2011 106.344 53.1103 110.43C49.576 113.959 44.0249 122.478 43.4481 125.26C42.9752 127.543 41.3047 133.274 40.3817 135.737C39.9373 136.924 39.3983 138.519 39.186 139.281C38.6259 141.294 39.5335 140.992 42.6188 138.164C44.1189 136.789 46.3293 134.93 47.5173 134.023C48.7052 133.116 50.2509 131.819 50.95 131.134C51.649 130.45 53.5981 128.598 55.2892 127.032C56.9803 125.465 59.6001 122.462 61.1133 120.349C62.6265 118.235 65.468 114.321 67.4196 111.643C69.9799 108.111 72.3383 104.48 75.5967 101.512C78.1418 98.8097 80.2246 96.3926 80.2252 96.1384C79.922 96.1182 79.6206 96.1079 79.3193 96.1192ZM291.051 109.774L293.75 112.74C295.239 114.373 296.643 115.845 296.855 116.014C299.577 119.953 301.206 124.271 302.043 128.957C302.531 130.483 303.388 133.533 303.952 135.737C304.516 137.94 305.483 141.546 306.112 143.749C307.991 150.328 308.035 150.529 307.616 150.529C307.395 150.529 306.338 149.53 305.264 148.294C301.255 143.685 300.166 142.732 292.824 137.624C290.449 135.971 287.989 134.168 287.367 133.599C286.745 133.03 285.356 132.041 284.281 131.403C282.235 130.19 281.011 128.825 277.358 123.719L275.159 120.637L275.583 123.719C276.083 127.327 277.081 130.228 279.73 135.737C281.697 139.83 289.262 148.116 294.676 152.108C304.332 159.229 313.038 167.673 315.022 171.85C315.595 173.057 316.211 173.917 316.372 173.757C316.532 173.596 316.632 165.473 316.603 155.691C316.547 136.901 316.251 134.627 313.132 128.341C309.014 120.044 299.689 111.687 292.863 110.179L291.051 109.774ZM46.7437 112.355C44.613 112.447 38.5853 115.908 35.0377 119.404C28.2933 126.051 25.8012 130.414 24.4118 137.971C22.8603 146.408 22.7503 149.387 23.6596 157.924C24.147 162.501 24.3948 168.394 24.2189 171.021C24.0159 174.052 24.1301 175.798 24.5274 175.798C24.8719 175.798 25.3318 175.313 25.5495 174.719C27.0152 170.726 33.9528 163.034 40.38 158.272C51.0997 150.328 59.0843 140.85 62.4807 132.039C64.6264 126.474 65.0562 123.887 63.8114 124.143C63.2827 124.252 62.3958 125.167 61.825 126.184C60.3967 128.729 56.3024 132.528 49.3665 137.759C42.9582 142.934 35.877 147.35 31.7203 154.785C29.9171 159.095 30.3587 156.131 32.3567 150.51C33.4956 147.305 34.9009 142.455 35.4809 139.743C37.0943 132.201 38.2421 127.69 39.338 124.643C40.7081 120.834 44.037 115.676 45.9338 114.436C46.7983 113.87 47.5152 113.156 47.5152 112.856C47.5152 112.478 47.2354 112.334 46.7437 112.355ZM317.974 132.039C317.213 132.173 317.493 133.329 318.803 135.429C319.226 136.106 320.052 138.33 320.635 140.359C321.556 143.564 321.627 145.423 321.175 154.535C320.889 160.303 320.632 170.94 320.616 178.186C320.598 186.396 320.411 190.576 320.095 189.28C318.739 183.708 318.003 181.96 315.409 178.032C313.868 175.698 310.391 171.815 307.695 169.403C300.567 163.027 293.573 156.039 292.286 154.015C291.666 153.039 290.939 152.489 290.647 152.782C290.106 153.325 291.671 159.858 293.135 163.163C294.779 167.766 296.435 172.07 299.306 176.048C303.884 183.266 309.652 189.696 314.117 196.965C316.691 200.773 319.271 206.232 320.655 210.774C321.3 212.89 321.975 214.623 322.159 214.626C325.894 206.712 326.638 196.705 329.796 189.048C334.332 178.714 333.407 157.529 327.964 146.83C325.485 141.452 322.387 136.293 318.148 132.039C318.088 132.039 318.025 132.03 317.974 132.039ZM21.8292 134.754C21.0105 134.937 18.415 137.921 16.2558 141.688C14.0883 145.611 11.9289 149.622 10.181 153.706C10.0673 154.498 9.66014 156.122 9.27456 157.308C7.39064 168.653 7.19969 180.765 11.666 191.514C12.3497 193.548 13.7696 197.569 14.8287 200.451C15.8879 203.332 16.8817 206.383 17.0273 207.23C17.2729 208.66 17.9493 211.448 18.2229 212.161C18.288 212.33 18.5541 213.411 18.8208 214.549L19.3029 216.61L20.0357 214.857C20.435 213.889 21.1154 211.768 21.5593 210.158C23.0685 205.217 27.6622 198.008 30.6039 193.998C33.2909 190.032 35.8503 186.111 36.2931 185.292C39.0235 181.57 41.8612 177.932 43.8146 173.717C43.8152 173.42 44.6154 171.478 45.5888 169.403C48.6014 162.98 50.3482 155.459 48.8287 155.459C48.5301 155.459 47.1333 156.984 45.7238 158.849C44.3144 160.713 42.9518 162.238 42.696 162.238C32.6966 169.768 23.1649 180.06 20.6722 192.65C19.8676 197.472 19.7419 194.243 20.4408 186.891C21.1636 179.288 20.8399 173.147 19.0522 160.524C17.736 151.23 18.5671 142.593 21.3279 137.066C22.1924 135.335 22.2581 134.658 21.8292 134.754ZM336.991 177.146C336.689 177.148 336.528 178.782 336.316 183.194C335.562 191.768 333.309 199.801 329.875 207.654C326.29 215.138 323.237 222.945 321.678 231.112C321.117 234.988 320.587 233.554 320.425 227.665C320.268 222.006 319.667 219.453 317.455 215.05C316.093 212.139 315.214 209.054 313.231 206.421C309.598 201.43 306.785 195.716 303.955 190.281C303.12 188.586 302.423 186.853 302.412 186.429C302.379 185.087 301.315 185.599 300.928 187.142C300.245 189.857 301.467 199.078 304.013 210.312C305.547 217.08 308.992 229.257 310.995 234.965C312.835 240.211 313.524 245.752 313.116 252.068C312.679 258.832 313.145 259.859 315.18 256.69C315.778 255.758 320.069 249.979 324.707 243.843C329.345 237.708 333.733 231.468 334.465 229.976C342.128 214.372 343.389 191.286 337.339 177.647C337.197 177.327 337.091 177.145 336.991 177.146ZM3.78123 179.823C2.45237 181.15 0.00239095 194.7 0.00135742 200.72C0.000323893 206.556 1.05426 215.109 2.23843 218.901C5.63732 230.598 11.0938 241.052 19.8653 249.89C22.4752 253.111 25.2065 256.882 25.9401 258.288C28.2573 262.728 28.6979 261.701 28.6979 251.759C28.7538 245.253 29.3283 239.188 31.7835 233.115L33.6349 226.644C34.1206 224.949 34.9687 221.898 35.5056 219.864C36.0425 217.831 36.8861 214.752 37.3763 213.027C38.3495 209.181 38.2303 205.228 39.1698 201.375C40.1327 197.393 40.4462 186.275 39.5941 186.275C34.9665 191.393 24.8928 215.633 23.8961 217.399C21.4397 224.095 21.0135 226.559 21.2733 233.019C21.5586 240.11 20.8196 240.778 19.8077 234.348C18.5269 226.209 16.6984 220.161 13.9256 214.953C13.0548 213.317 12.3443 211.735 12.3443 211.448C12.3443 211.16 11.5111 209.17 10.4929 207.018C9.47469 204.866 8.64154 202.901 8.64154 202.646C8.64154 202.391 8.25025 201.307 7.7737 200.239C5.78965 195.791 4.8806 191.787 4.51447 185.813C4.30126 182.333 3.97208 179.632 3.78123 179.823ZM303.627 222.638C301.043 227.159 300.329 233.006 298.729 237.911C297.836 242.42 295.605 262.863 295.605 266.55C295.605 272.828 291.985 290.102 289.896 293.823C288.085 297.049 287.672 298.083 287.968 298.561C294.599 294.744 301.086 290.406 307.33 286.118C309.273 285.042 310.931 283.504 312.884 282.42C314.17 281.403 315.368 280.571 315.546 280.571C325.861 272.414 334.713 262.36 338.996 249.755C341.482 242.288 342.793 230.051 341.484 226.643C340.951 225.255 340.051 226.644 340.038 228.877C340.026 230.824 336.955 238.665 335.718 239.894C335.547 240.064 334.575 241.429 333.558 242.937C332.541 244.445 328.618 248.882 324.841 252.798C321.064 256.714 316.928 261.173 315.661 262.698C313.362 265.193 311.356 267.685 309.605 270.614C308.142 272.538 305.781 276.111 305.517 276.45C303.518 279.019 302.457 280.628 302.335 280.707C302.377 280.532 303.09 279.207 304.495 276.373C306.055 273.228 307.169 269.423 307.966 263.873C308.761 258.342 308.399 253.739 306.404 243.901C304.831 236.141 304.244 231.498 304.244 227.029C304.244 224.509 303.981 222.638 303.627 222.638ZM38.243 227.106C37.8711 227.075 37.6493 227.757 37.6451 229.205C37.6376 231.775 35.7001 242.838 34.4823 247.29C34.0312 248.94 33.7146 254.06 33.7109 259.925C33.7512 266.388 33.8361 273.093 37.433 278.742C38.3312 280.098 38.9073 281.372 38.7251 281.554C35.7375 278.912 34.5107 274.964 31.8211 272.039C30.8214 270.57 28.321 267.519 26.267 265.26C21.9043 260.462 12.0514 250.06 10.029 248.099C9.25911 247.353 8.64042 246.549 8.64042 246.327C8.64042 246.106 7.85016 244.924 6.88549 243.689C4.58033 240.737 1.75931 234.64 1.52418 232.114C1.42132 231.008 1.03198 229.605 0.675658 228.993C-0.342562 227.245 -0.165117 239.907 0.907078 245.75C2.03776 251.911 2.94468 254.442 6.28763 260.734C9.42936 266.646 14.7309 273.178 19.4399 276.931C21.3009 278.414 22.8341 279.851 22.8341 280.109C29.2583 284.581 35.748 289.337 42.1772 293.533C42.5732 293.546 45.2513 295.189 48.1364 297.173C55.1534 301.999 55.1921 301.989 52.842 296.961C52.0339 295.233 50.9431 292.851 50.4313 291.665C48.6032 287.427 46.6348 276.573 45.9572 267.012C44.98 253.225 42.4908 237.479 40.2102 230.688C39.4349 228.379 38.721 227.147 38.243 227.106ZM291.903 258.211C291.835 258.195 291.77 258.21 291.691 258.23C291.22 258.351 290.515 259.139 289.531 260.657C288.475 262.287 286.918 264.429 286.06 265.414C282.038 271.06 278.342 277.161 275.858 283.634C275.858 283.993 275.579 284.779 275.241 285.367C274.903 285.956 273.523 289.755 272.175 293.822C269.23 302.704 268.021 306.126 267.296 307.555C266.996 308.144 266.157 309.862 265.425 311.387C263.141 316.145 260.308 320.194 256.901 323.598C255.782 324.716 254.876 325.756 254.876 325.909C254.876 326.414 257.397 326.201 258.521 325.601C259.866 324.882 267.529 323.126 272.156 322.481C280.84 321.269 284.031 320.454 291.923 317.454C297.301 315.409 307.887 308.119 313.812 302.373C318.944 297.397 323.569 290.973 326.424 284.866C328.219 281.028 330.961 271.927 330.474 271.442C330.347 271.315 329.676 272.275 328.97 273.579C326.937 277.335 326.359 278.107 322.76 281.977C319.554 285.424 313.684 290.333 311.652 291.26C311.142 291.492 309.893 292.211 308.874 292.859C307.856 293.506 304.94 295.05 302.395 296.287C299.85 297.524 297.35 298.778 296.841 299.079C296.332 299.381 294.429 300.351 292.617 301.237C286.161 304.82 279.84 308.703 274.277 313.544C273.054 314.73 271.893 315.701 271.693 315.701C271.36 315.701 273.398 313.215 274.972 311.714C280.344 305.352 284.234 298.019 285.945 289.815C286.478 287.273 287.361 282.281 287.912 278.721C289.276 269.921 290.573 264.079 291.75 261.291C292.422 259.699 292.529 258.757 292.097 258.325C292.043 258.271 291.972 258.225 291.904 258.21L291.903 258.211ZM49.5859 260.233C48.0577 260.304 52.0628 268.874 51.8616 271.019C53.9457 280.461 54.3108 282.482 54.3108 284.327C54.3108 288.581 58.6239 302.752 60.482 304.608C62.4705 308.388 64.5099 311.675 68.0416 314.104L72.5158 318.379L68.7166 315.837C66.6314 314.438 64.5127 312.852 63.9917 312.332C58.0894 308.79 52.7534 304.114 46.2492 301.469C26.6471 292.444 19.081 286.781 12.7894 276.393C11.2491 273.849 11.0864 273.71 11.4009 275.333C11.5979 276.35 11.913 278.006 12.0951 279.012C15.6286 289.378 21.4686 298.439 29.6638 305.841C31.4325 307.366 33.4614 309.139 34.1766 309.77C42.4306 316.331 52.18 320.853 62.6413 322.52L73.441 324.369C74.6786 324.592 88.5092 328.413 86.9789 326.179C85.2003 326.179 79.0602 317.995 75.8704 311.388C75.1341 309.862 74.2796 308.144 73.9805 307.555C73.2945 306.204 72.1809 303.12 69.082 293.938C65.7555 284.082 61.2653 274.919 57.241 269.786C56.9753 269.447 55.3871 267.402 53.6925 265.24C51.998 263.078 50.6069 261.068 50.6069 260.772C50.1347 260.392 49.8031 260.222 49.5848 260.233L49.5859 260.233ZM268.804 293.765C267.807 293.798 262.912 297.336 259.585 300.487C257.729 302.245 255.143 304.561 253.838 305.629C252.534 306.697 247.345 311.62 242.305 316.569C233.883 324.767 224.851 331.9 212.683 333.575C211.83 333.575 210.981 333.83 210.793 334.134C210.353 334.845 211.903 335.424 214.226 335.424C215.981 335.424 221.594 336.588 226.8 338.024C228.158 338.399 230.38 338.915 231.737 339.18C233.095 339.445 236.844 340.217 240.069 340.894C251.467 343.269 263.438 344.237 274.628 340.259C284.317 336.937 293.021 330.859 299.583 323.021C301.779 320.707 305.981 313.572 304.925 313.949C304.596 314.067 302.846 315.548 301.03 317.242C297.568 320.473 296.196 321.475 293.913 322.462C293.154 322.79 291.348 323.632 289.902 324.33C285.829 326.295 277.824 327.814 265.68 328.933C255.855 329.872 245.987 331.607 236.212 332.246C241.609 330.661 246.608 328.057 251.1 324.658C253.22 322.814 258.647 314.803 260.511 310.771C261.059 309.584 262.285 306.95 263.249 304.916C264.213 302.882 265.028 301.068 265.043 300.891C265.058 300.713 265.998 299.112 267.145 297.327C268.292 295.543 269.095 293.959 268.939 293.803C268.908 293.773 268.87 293.762 268.804 293.765ZM72.8468 294.959C72.2889 295.002 72.6818 296.026 73.9461 298.002C76.5296 302.041 76.8548 302.642 80.4069 309.538C84.7822 318.034 87.5499 322.231 90.821 325.351C93.8804 328.269 99.4206 331.369 102.662 331.976C103.874 332.203 105.304 333.074 105.304 333.074C105.304 333.074 102.208 333.029 100.599 332.65C97.9143 332.126 79.6392 330.311 70.0506 329.626C57.8408 328.754 47.5992 325.09 40.9684 319.187C37.2851 315.909 35.9577 315.795 38.2685 318.956C39.0708 320.054 40.306 321.762 41.007 322.77C46.7187 329.761 54.3576 336.193 62.6833 339.66C63.5001 340.402 66.8205 341.55 71.9017 342.838C77.4201 344.237 87.1773 344.354 95.9313 343.127C99.5951 342.614 102.844 342.041 103.144 341.856C103.444 341.671 105.004 341.274 106.615 340.989C108.227 340.705 111.63 339.878 114.175 339.14C116.72 338.403 121.699 337.184 125.245 336.425L131.686 335.038L128.639 334.268C126.96 333.84 124.682 333.094 123.567 332.611C118.26 330.457 112.615 328.992 108.004 325.292C106.816 324.405 103.331 321.256 100.271 318.301C92.1018 310.416 84.0506 303.077 79.828 299.676C75.8372 296.462 73.564 294.902 72.8465 294.958L72.8468 294.959ZM189.713 334.037C186.394 334.09 182.792 334.408 178.971 335.077C178.132 335.224 176.434 335.558 175.211 335.963C171.433 337.213 170.404 337.248 168.017 336.194C166.129 335.36 163.463 334.616 153.361 334.595C147.472 334.695 141.746 334.933 136.197 336.907C132.807 337.579 129.659 339.184 126.362 340.162C124.24 341.025 120.81 342.385 118.744 343.166C116.678 343.947 113.191 345.422 110.991 346.46C105.678 348.967 98.4216 350.784 91.7831 351.255C84.9689 351.739 77.4261 350.31 71.1674 347.365C66.3442 345.095 66.0376 345.005 66.0376 345.863C71.6689 352.579 79.1647 356.924 87.1933 360.154C89.8052 361.539 101.133 363.244 104.608 362.773C108.618 362.229 115.843 360.747 117.374 360.154C122.645 358.112 124.954 356.996 129.601 354.26C133.763 351.732 137.644 348.874 141.712 346.248C148.375 341.167 157.25 338.196 162.096 339.41C163.671 339.805 163.4 340.035 158.278 342.646C150.975 346.37 145.429 350.032 137.97 356.051C130.608 361.992 125.709 366.637 125.994 367.414C126.109 367.727 127.595 369.102 129.292 370.477C130.989 371.852 132.688 372.988 133.072 373C133.456 373.012 134.572 371.977 135.54 370.708C138.893 366.318 152.042 354.001 155.443 352.064C158.77 350.075 161.493 347.204 165.066 345.574C166.419 344.908 167.91 344.014 168.364 343.59C170.234 341.843 175.974 343.734 181.44 347.885C182.288 348.529 184.093 349.882 185.451 350.909C189.576 354.027 192.68 356.564 195.576 359.152C199.064 362.299 201.87 365.752 205.411 368.763C207.769 371.184 209.458 372.436 210.194 372.307C211.702 372.043 216.607 366.94 216.249 366.009C215.598 364.314 205.812 356.224 198.102 351.005C195.217 349.052 192.717 347.292 192.548 347.096C192.378 346.9 191.406 346.298 190.388 345.767C189.369 345.236 186.496 343.701 184.004 342.358L179.472 339.912L181.459 339.526C187.171 338.386 191.923 339.864 200.069 345.324C203.348 347.607 206.398 350.124 209.943 351.968C219.622 358.369 229.584 361.424 240.722 361.425C249.597 361.425 255.258 359.848 263.845 354.992C269.359 351.874 277.851 344.596 276.978 343.725C276.785 343.532 274.996 344.266 273.005 345.343C266.59 348.815 261.883 349.801 251.791 349.792C244.274 349.723 237.248 348.566 230.346 345.382C224.716 342.618 218.743 340.474 212.913 338.198C210.697 337.154 208.306 336.802 205.97 336.118C202.379 334.998 197.285 334.072 191.12 334.037C190.658 334.035 190.187 334.029 189.713 334.037Z" fill="currentcolor"/>
<path d="M173.021 306C160.412 306 148.692 303.9 137.861 299.701C127.192 295.341 117.897 289.285 109.976 281.532C102.055 273.78 95.9117 264.736 91.547 254.4C87.1823 243.902 85 232.436 85 220C85 207.564 87.1823 196.178 91.547 185.842C95.9117 175.345 102.055 166.22 109.976 158.468C118.058 150.715 127.434 144.74 138.103 140.541C148.773 136.18 160.412 134 173.021 134C184.983 134 196.137 135.938 206.483 139.814C216.991 143.69 225.962 149.585 233.398 157.499L225.639 165.493C218.365 158.387 210.282 153.3 201.391 150.231C192.662 147.001 183.367 145.386 173.506 145.386C162.675 145.386 152.571 147.243 143.195 150.958C133.981 154.672 125.898 159.921 118.947 166.704C112.158 173.487 106.823 181.401 102.944 190.445C99.2256 199.489 97.3665 209.341 97.3665 220C97.3665 230.659 99.2256 240.511 102.944 249.555C106.823 258.599 112.158 266.513 118.947 273.296C125.898 280.079 133.981 285.328 143.195 289.042C152.571 292.757 162.675 294.614 173.506 294.614C183.367 294.614 192.662 293.08 201.391 290.011C210.282 286.781 218.365 281.532 225.639 274.265L233.398 282.259C225.962 290.173 216.991 296.148 206.483 300.186C196.137 304.062 184.983 306 173.021 306Z" fill="currentcolor"/>
<path d="M172.449 285.061C182.126 285.061 191.12 283.45 199.432 280.227C207.62 276.881 214.754 272.233 220.833 266.284C226.912 260.334 231.626 253.393 234.976 245.461C238.325 237.405 240 228.605 240 219.061C240 209.517 238.325 200.779 234.976 192.847C231.626 184.791 226.912 177.788 220.833 171.839C214.63 165.889 207.434 161.303 199.246 158.081C191.058 154.734 182.126 153.061 172.449 153.061C163.269 153.061 154.709 154.548 146.769 157.523C138.705 160.498 131.82 165.022 126.113 171.095L132.068 177.23C137.65 171.777 143.853 167.872 150.677 165.517C157.376 163.039 164.509 161.799 172.077 161.799C180.389 161.799 188.143 163.224 195.338 166.075C202.41 168.926 208.613 172.954 213.947 178.16C219.158 183.365 223.252 189.439 226.229 196.379C229.083 203.32 230.509 210.881 230.509 219.061C230.509 227.241 229.083 234.802 226.229 241.743C223.252 248.684 219.158 254.757 213.947 259.962C208.613 265.168 202.41 269.196 195.338 272.047C188.143 274.898 180.389 276.323 172.077 276.323C164.509 276.323 157.376 275.146 150.677 272.791C143.853 270.312 137.65 266.284 132.068 260.706L126.113 266.841C131.82 272.915 138.705 277.5 146.769 280.599C154.709 283.574 163.269 285.061 172.449 285.061Z" fill="currentcolor"/>
<defs>
<clipPath id="clip0_210_46">
<rect width="185" height="99" fill="white" transform="translate(79)"/>
</clipPath>
</defs>
</svg>
